<svg version="1.1" id="Layer_1" xmlns="http://www.w3.org/2000/svg" xmlns:xlink="http://www.w3.org/1999/xlink" x="0px" y="0px"
	 width="100%" viewBox="0 0 1024 432" enable-background="new 0 0 1024 432" xml:space="preserve">
<path fill="#000000" opacity="1.000000" stroke="none" 
	d="
M339.849945,195.074783 
	C329.820251,198.517471 322.193237,205.557022 314.476898,212.346481 
	C304.914764,220.760040 297.330566,230.895966 290.288269,241.451950 
	C289.313995,242.912323 288.833160,244.909149 285.961945,245.570724 
	C281.886353,240.857315 276.039764,237.336456 271.682617,232.543015 
	C267.595551,228.046722 267.168274,221.267059 265.982208,215.259888 
	C265.603943,213.344040 267.512726,212.996475 269.117859,213.014267 
	C271.409241,213.039673 272.074921,214.287048 272.357086,216.488708 
	C273.431427,224.871979 276.456329,228.506668 283.249084,230.133026 
	C293.113251,232.494766 302.898834,222.897049 299.176453,213.532089 
	C296.846008,207.669022 298.725647,205.413315 303.147827,203.104507 
	C303.568359,202.884949 303.874786,202.446823 304.255676,202.090042 
	C290.815613,197.206070 274.954742,200.645920 262.470245,211.191101 
	C265.414124,216.547531 266.400360,222.416000 266.979797,228.222031 
	C264.905304,229.479233 263.604462,228.392899 262.326569,227.803131 
	C255.526672,224.664825 248.857147,221.223389 241.954330,218.336884 
	C238.134674,216.739655 238.341141,214.904572 240.121490,211.917465 
	C243.188950,206.770813 247.404633,202.856567 252.424500,199.754730 
	C258.795532,195.817963 265.189545,191.914810 271.655548,188.137299 
	C273.748413,186.914597 274.767914,185.469406 274.752014,182.975113 
	C274.679871,171.643890 280.067444,163.149628 289.326447,157.252014 
	C303.223328,148.400208 317.309082,139.836639 331.462372,131.398514 
	C340.808533,125.826408 347.245239,129.539017 347.224152,140.235123 
	C347.196289,154.387054 347.089874,168.539062 346.946716,182.690323 
	C346.916779,185.650604 347.128632,188.704834 344.988983,191.837921 
	C342.981384,193.210327 341.415680,194.142563 339.849945,195.074783 
z"/>
<path fill="#000000" opacity="1.000000" stroke="none" 
	d="
M339.693787,195.353210 
	C341.415680,194.142563 342.981384,193.210327 344.754639,192.157104 
	C347.165863,193.893341 346.151154,195.979523 345.259155,197.937317 
	C343.236267,202.377228 340.547943,206.440094 336.815002,209.572144 
	C333.961182,211.966568 333.112854,214.731628 333.141022,218.311646 
	C333.218414,228.135513 332.702850,237.970901 332.999115,247.784302 
	C333.303864,257.879852 328.603394,265.215332 321.536194,271.619568 
	C312.306854,279.983124 301.037354,285.207367 290.660126,291.801971 
	C286.308014,294.567688 281.909302,297.282837 277.381409,299.744415 
	C268.412750,304.620270 261.778687,300.718109 261.683197,290.641266 
	C261.645691,286.684753 261.677032,282.727600 261.677032,278.577179 
	C257.630951,278.374359 255.414246,280.604156 252.921890,282.012360 
	C243.541031,287.312531 236.751770,283.516296 236.662781,272.813080 
	C236.534042,257.328339 236.410309,241.843460 236.347885,226.358368 
	C236.340683,224.573898 236.738129,222.787796 237.124527,219.500031 
	C261.160004,239.256775 279.443909,261.385925 286.363770,291.343292 
	C289.345581,290.449432 289.373810,288.434448 289.898071,286.758301 
	C296.322449,266.219147 304.034576,246.234818 314.876526,227.547974 
	C321.691376,215.802185 329.967407,205.227356 339.693787,195.353210 
z"/>
<path fill="#000000" opacity="1.000000" stroke="none" 
	d="
M374.970276,194.973206 
	C375.411835,197.104248 376.232574,199.153503 373.829987,200.028137 
	C371.698120,200.804199 370.451294,199.233627 369.349976,197.700485 
	C366.618347,193.897751 364.407135,189.798706 362.512177,185.527908 
	C360.316711,180.579773 362.714600,176.806229 365.857025,173.366333 
	C371.466766,167.225540 378.809143,163.504089 385.912109,159.519913 
	C390.405975,156.999237 395.066772,154.718765 399.825348,152.747192 
	C403.113403,151.384888 404.853119,149.415482 405.351593,145.859802 
	C406.094696,140.559509 408.022797,139.692383 411.916229,143.401794 
	C414.957123,146.298965 417.676178,146.438156 421.305603,145.248260 
	C424.605927,144.166260 428.083160,143.503418 431.533508,143.022522 
	C441.333557,141.656555 456.982208,158.459061 454.693298,168.154068 
	C450.661957,185.229416 441.111633,199.162415 428.498596,210.951569 
	C422.293091,216.751694 411.871155,216.250870 404.863770,210.863571 
	C404.037262,210.228149 403.249512,209.478226 403.503052,208.389954 
	C403.883331,206.757477 405.347839,206.703629 406.689606,206.562988 
	C411.848785,206.022232 417.052032,205.521240 421.075531,201.707794 
	C432.199707,191.164337 440.422638,178.876099 443.455170,163.597244 
	C444.470276,158.482971 442.032776,155.330780 436.772583,155.492691 
	C429.104462,155.728775 421.599518,157.248947 414.350677,159.877090 
	C412.447876,160.566986 411.353027,161.947495 410.838257,163.803375 
	C404.521332,186.577881 397.424377,209.106934 389.645020,231.423141 
	C389.502777,231.831116 389.699646,232.357346 389.738342,232.829071 
	C396.464050,232.256165 399.736969,234.446777 401.342712,240.453598 
	C402.056793,243.124817 401.718903,244.890091 398.446442,245.460571 
	C393.043182,246.402527 388.647125,249.402466 384.553772,252.934860 
	C379.771240,257.062012 373.131866,255.390106 370.660004,249.537323 
	C370.261200,248.593033 369.859802,247.595108 370.543488,246.689865 
	C377.811035,237.067444 380.511383,225.376114 384.944946,214.501373 
	C390.598999,200.632996 395.194153,186.363312 399.057098,171.875443 
	C399.438721,170.444153 400.083771,169.051590 399.443481,167.540634 
	C391.643433,167.624741 376.174500,178.736511 373.785187,185.925110 
	C372.763153,189.000137 373.549957,191.831406 374.970276,194.973206 
z"/>
<path fill="#000000" opacity="1.000000" stroke="none" 
	d="
M552.250977,247.424271 
	C558.556946,225.416321 565.297424,203.991394 574.466736,183.409607 
	C576.236938,179.436172 578.416870,175.702957 581.148010,172.312561 
	C583.895081,168.902420 587.229370,167.806259 591.291748,169.933746 
	C593.945679,171.323578 596.627136,172.666397 599.227173,174.151215 
	C600.529236,174.894791 601.892700,175.895309 601.362488,177.690292 
	C600.899963,179.255829 599.385315,179.455872 598.051758,179.281631 
	C593.397888,178.673492 590.508179,181.277161 588.073914,184.647263 
	C582.389587,192.516617 578.918274,201.422241 576.039978,210.663208 
	C581.815430,204.173248 587.221680,197.424133 593.669556,191.659988 
	C596.660217,188.986465 599.296387,184.689102 604.246582,187.076828 
	C610.701965,190.190491 617.472839,193.238800 617.344055,202.240112 
	C617.168945,214.477676 613.346558,225.779068 608.665833,236.863373 
	C606.720764,241.469330 604.531067,245.974777 601.420898,249.940887 
	C595.131104,257.961395 583.780701,257.491852 578.120056,249.011719 
	C577.549194,248.156570 577.026855,247.297821 577.549377,246.251175 
	C578.270813,244.806030 579.683350,244.465469 580.968079,244.856461 
	C589.450989,247.438065 593.275635,242.052902 596.398743,235.784546 
	C601.787964,224.967957 605.689453,213.696533 605.799011,201.422424 
	C605.816528,199.462769 606.194763,197.103424 604.015686,196.071533 
	C601.599792,194.927490 599.942017,196.870804 598.396973,198.313248 
	C579.369629,216.076508 567.336304,237.913086 560.218567,262.809937 
	C555.101929,280.707336 553.293518,298.996887 552.176086,317.435303 
	C552.007812,320.212372 552.558289,323.727295 549.342590,324.842468 
	C545.974854,326.010315 544.038452,322.797363 541.940247,320.779877 
	C539.216064,318.160400 539.491028,314.703552 539.832336,311.384003 
	C541.928345,290.999603 545.913208,270.968842 551.266968,251.200394 
	C551.571472,250.076050 551.834717,248.940506 552.250977,247.424271 
z"/>
<path fill="#000000" opacity="1.000000" stroke="none" 
	d="
M735.635254,196.785263 
	C741.813843,174.867584 749.137390,153.829285 760.064514,134.201187 
	C762.589355,129.665985 765.520630,125.438980 769.337769,121.874969 
	C771.928162,119.456413 774.777283,118.796532 778.021240,120.505104 
	C782.057617,122.631004 785.093689,126.008232 788.511841,128.902771 
	C789.427673,129.678268 789.973389,130.807556 789.252014,132.028473 
	C788.418396,133.439285 787.056702,133.291077 785.701721,133.043213 
	C776.617920,131.381714 775.204712,131.880859 770.508667,139.573929 
	C755.926392,163.462555 747.478577,189.680038 741.453552,216.796585 
	C741.280090,217.577194 741.431641,218.429993 741.431641,220.733749 
	C743.179382,218.145340 744.269470,216.638763 745.248596,215.063263 
	C751.271362,205.372513 758.581177,196.767746 767.086487,189.178726 
	C769.444458,187.074829 771.751831,184.654465 775.407288,186.757645 
	C779.597717,189.168625 784.655945,190.265640 784.530029,197.064606 
	C784.357971,206.363663 781.929565,215.135315 779.859436,224.031311 
	C779.679749,224.803650 779.575500,225.593552 779.418518,226.474838 
	C780.011230,226.417053 780.355408,226.478226 780.589905,226.345612 
	C782.462036,225.287155 783.763367,221.563690 786.162048,223.513306 
	C788.852417,225.700012 785.654114,227.922073 784.488037,229.869614 
	C780.129211,237.149139 775.108704,244.042496 771.774963,251.913940 
	C770.330139,255.325409 768.352600,257.748840 764.147217,255.968323 
	C760.105103,254.256927 758.741150,251.705704 760.454285,247.255356 
	C765.714661,233.590012 770.915955,219.885330 773.339905,205.335770 
	C773.889465,202.036774 773.979492,198.761810 773.604614,195.087570 
	C769.623596,195.960190 767.357422,198.667694 765.151245,201.187408 
	C753.201660,214.835907 743.726135,230.013611 737.142944,246.972229 
	C736.080139,249.710022 735.622559,253.738510 731.057739,252.620224 
	C726.888977,251.598984 724.364624,247.227234 725.179382,242.905624 
	C728.076355,227.538483 731.254517,212.233246 735.635254,196.785263 
z"/>
<path fill="#000000" opacity="1.000000" stroke="none" 
	d="
M671.430176,240.445709 
	C670.229370,243.764313 669.199890,246.743011 668.147583,249.713593 
	C667.254272,252.235291 667.399353,255.832352 663.176819,255.199158 
	C658.773376,254.538864 655.436218,250.381454 656.172241,246.424164 
	C657.715088,238.129044 659.420532,229.864166 661.179382,220.979843 
	C653.627319,230.269485 646.662231,239.359772 638.423889,247.330215 
	C636.750000,248.949646 635.178467,250.706329 633.346252,252.123840 
	C630.178955,254.574249 627.020752,257.183655 622.606384,254.289856 
	C617.817383,251.150528 615.954651,247.432816 617.019165,242.069397 
	C619.833313,227.891174 626.686951,215.606598 634.961121,204.001129 
	C638.546753,198.971878 642.663696,194.412766 647.163513,190.175201 
	C653.135132,184.551575 655.858521,184.366562 662.207153,189.462433 
	C663.748047,190.699265 665.239563,191.997650 667.077026,193.538834 
	C669.834351,189.846832 672.575439,189.657776 676.261597,192.411331 
	C680.108643,195.285110 679.661255,198.241470 678.388855,202.011505 
	C675.473450,210.650040 672.090942,219.167709 670.729187,228.274231 
	C671.092407,228.327637 671.441650,228.496780 671.624512,228.387527 
	C673.346252,227.359161 674.821106,224.464981 677.081421,226.506668 
	C679.308960,228.518814 676.644653,230.368408 675.775269,232.158264 
	C674.468506,234.848907 672.994568,237.458344 671.430176,240.445709 
M639.474792,215.950958 
	C633.642761,225.289627 627.690369,234.581329 627.805298,246.436996 
	C644.230591,233.179932 656.916931,217.098328 666.767029,198.584076 
	C659.736145,194.616928 654.815125,196.625854 650.491089,201.490921 
	C646.613647,205.853561 643.069702,210.465240 639.474792,215.950958 
z"/>
<path fill="#000000" opacity="1.000000" stroke="none" 
	d="
M497.430847,230.589584 
	C500.436676,216.737961 504.873688,203.859283 512.929016,192.595367 
	C516.878967,187.072006 519.931091,183.387726 527.619507,189.565048 
	C529.660645,191.204941 531.583923,190.490982 533.686218,189.675644 
	C542.159058,186.389664 550.055542,190.770767 550.113647,199.753845 
	C550.236877,218.820099 544.526062,236.167343 531.826904,250.695419 
	C525.181641,258.297638 516.364502,257.414581 505.048126,252.472443 
	C497.237701,249.061432 495.104401,241.792114 497.430847,230.589584 
M517.828674,205.449600 
	C515.487793,209.684387 513.674255,214.145859 512.099548,218.712631 
	C509.479462,226.310776 507.604675,234.030853 508.274414,242.160751 
	C508.839783,249.023697 513.378174,251.542282 519.352661,248.238113 
	C522.781860,246.341614 525.285645,243.407562 527.354248,240.158096 
	C532.869568,231.494278 536.410217,221.962479 538.421814,211.981522 
	C539.443542,206.911987 540.808899,201.615906 539.094055,195.912369 
	C533.702393,196.301361 529.381531,199.426178 524.528442,200.839615 
	C521.983521,201.580811 519.241089,201.822311 517.828674,205.449600 
z"/>
<path fill="#000000" opacity="1.000000" stroke="none" 
	d="
M719.203125,188.743408 
	C721.652832,188.716476 723.652161,188.690811 725.651672,188.678879 
	C727.467651,188.668045 729.083130,189.159882 729.409973,191.184525 
	C729.797791,193.586761 727.978516,194.539169 726.137878,194.795074 
	C722.023743,195.367065 717.868530,195.658432 713.724121,195.991150 
	C711.618530,196.160202 709.871460,196.574753 709.043274,198.921478 
	C704.045959,213.082275 700.457275,227.581375 698.421326,242.459167 
	C698.314697,243.238464 698.580200,244.068680 698.703369,245.145325 
	C702.806641,244.912247 704.711487,241.636169 707.377319,239.648331 
	C708.973022,238.458496 710.327515,236.949509 711.889587,235.708939 
	C712.979919,234.843033 714.297607,234.370377 715.489319,235.558472 
	C716.486877,236.552994 716.224731,237.775345 715.509216,238.759048 
	C711.294861,244.552490 706.991028,250.274384 701.327881,254.791260 
	C696.984863,258.255249 693.861938,254.429291 690.474609,252.847687 
	C687.346985,251.387344 686.606812,248.613602 687.172791,245.266266 
	C689.587463,230.985825 692.771606,216.876053 696.703979,202.946945 
	C697.806458,199.041916 698.539001,196.066864 692.922729,195.979324 
	C691.403564,195.955627 690.052490,194.954697 689.920654,193.152802 
	C689.789490,191.360336 690.943909,190.087967 692.458923,189.914948 
	C701.733337,188.855652 703.978333,181.900330 706.205017,174.477692 
	C708.402710,167.151810 710.991638,159.894699 714.877014,153.241745 
	C719.225159,145.796509 726.735779,145.018951 732.712952,151.294449 
	C734.629211,153.306290 734.433716,154.982224 731.401978,155.332581 
	C729.045715,155.604843 727.298035,156.745285 725.934814,158.475922 
	C719.187500,167.041534 716.752563,177.444336 713.090820,186.960251 
	C715.053650,189.306992 717.012512,188.559906 719.203125,188.743408 
z"/>
<path fill="#000000" opacity="1.000000" stroke="none" 
	d="
M454.288818,201.317413 
	C456.779846,197.744370 458.914337,194.350266 461.368011,191.205170 
	C464.245667,187.516632 469.445282,187.584778 472.590881,191.035629 
	C473.983582,192.563461 473.692963,194.016983 472.805969,195.589737 
	C469.349396,201.718674 467.557800,208.458359 465.793701,215.264755 
	C471.263641,207.684158 475.541809,199.318008 481.249542,191.910355 
	C482.061432,190.856674 482.739807,189.691483 483.615692,188.697525 
	C485.526398,186.529266 487.419342,184.483475 490.846893,186.127411 
	C494.478546,187.869232 498.909363,188.253189 498.464172,194.254944 
	C498.057556,199.737198 498.011139,205.207336 496.390411,210.523010 
	C495.583679,213.168839 495.516937,216.592804 491.392090,215.927383 
	C487.815399,215.350372 485.241913,211.309555 485.861298,207.618561 
	C486.418854,204.295959 488.073944,201.117538 487.326843,196.709030 
	C477.957245,207.667938 471.613708,219.454529 466.415588,231.886917 
	C464.173401,237.249603 462.615356,242.895844 460.445618,248.292297 
	C459.199127,251.392548 459.046906,256.255737 453.489594,254.666443 
	C447.589996,252.979294 445.927277,250.044373 447.302582,244.237823 
	C449.909515,233.231583 452.790100,222.299316 456.167511,211.500839 
	C456.658691,209.930405 457.007385,208.315384 457.423767,206.714417 
	C457.029053,206.643127 456.669281,206.457489 456.502533,206.566620 
	C454.734009,207.724258 453.622375,211.492859 451.042450,209.366287 
	C448.066467,206.913315 451.937714,205.214401 452.897705,203.217987 
	C453.181122,202.628647 453.675690,202.140869 454.288818,201.317413 
z"/>
<path fill="#000000" opacity="1.000000" stroke="none" 
	d="
M712.038574,285.448120 
	C711.797546,280.786652 714.995667,280.067352 717.940308,279.667694 
	C726.438965,278.514160 734.880371,280.806915 743.576233,279.717041 
	C749.605591,278.961365 752.251343,283.546753 752.311951,290.002472 
	C752.349548,294.000214 752.319580,297.998535 752.325073,301.996613 
	C752.327454,303.771790 752.137878,305.459961 749.825195,305.526123 
	C747.216187,305.600739 747.580200,303.681885 747.591187,302.017181 
	C747.616516,298.185974 747.712891,294.352509 747.617371,290.524017 
	C747.505493,286.041351 745.015320,283.381958 740.906860,283.547089 
	C736.696838,283.716309 734.675598,285.950012 734.912842,290.361572 
	C735.127075,294.346039 734.970398,298.355255 734.858215,302.350220 
	C734.808716,304.115143 734.286011,305.743286 731.976257,305.566467 
	C729.937927,305.410400 729.745789,303.905121 729.739624,302.318604 
	C729.722778,297.987366 729.705627,293.656128 729.704773,289.324890 
	C729.703796,284.136932 725.955383,283.712708 722.160339,283.423096 
	C718.064880,283.110626 717.080505,285.431244 717.229553,289.049957 
	C717.407593,293.373169 717.251160,297.710175 717.237488,302.041229 
	C717.231689,303.875061 716.829041,305.421539 714.542603,305.394592 
	C712.157715,305.366516 712.034424,303.616669 712.027161,301.891022 
	C712.004761,296.560394 712.026367,291.229645 712.038574,285.448120 
z"/>
<path fill="#000000" opacity="1.000000" stroke="none" 
	d="
M569.243530,292.347290 
	C571.993347,285.886749 574.603027,279.781189 577.149902,273.649567 
	C578.033752,271.521606 579.132019,269.912476 581.784302,269.871796 
	C584.484924,269.830444 585.523254,271.509460 586.415955,273.614014 
	C590.742554,283.813904 595.106628,293.997894 599.549866,304.404114 
	C595.985779,306.278259 594.343567,305.004242 593.060852,302.118591 
	C591.877258,299.456177 591.673523,295.392822 588.593750,294.779572 
	C584.288635,293.922241 579.623535,294.032959 575.245972,294.660736 
	C572.088196,295.113586 571.989441,298.937775 570.846680,301.408447 
	C569.646790,304.002655 568.483032,306.192596 564.783997,304.782135 
	C565.111267,300.265533 567.835449,296.725861 569.243530,292.347290 
M579.962036,289.740509 
	C582.322388,289.544067 584.798767,290.201569 587.340088,289.006226 
	C585.620850,284.749969 584.608948,280.541199 581.417847,276.518341 
	C579.731445,280.491302 578.294189,283.776886 576.942505,287.097290 
	C576.051575,289.285919 577.506409,289.631927 579.962036,289.740509 
z"/>
<path fill="#000000" opacity="1.000000" stroke="none" 
	d="
M757.867004,287.080536 
	C757.860657,285.104797 757.837769,283.605286 757.857727,282.106323 
	C757.880371,280.404419 758.493530,279.103149 760.440308,279.179047 
	C762.250671,279.249664 763.097534,280.416595 763.118591,282.150970 
	C763.169128,286.315063 763.132263,290.480469 763.205261,294.644043 
	C763.291809,299.582764 765.687134,301.748444 770.772644,301.595825 
	C776.413513,301.426544 777.605164,300.300751 777.659790,294.981323 
	C777.702576,290.816681 777.679199,286.651337 777.713440,282.486572 
	C777.726135,280.939606 777.812927,279.317383 779.938416,279.305359 
	C781.984680,279.293762 782.307129,280.798889 782.308960,282.404205 
	C782.318237,290.567169 782.315430,298.730133 782.290283,306.893036 
	C782.283630,309.056274 781.133789,310.662445 779.569336,312.022949 
	C775.501587,315.560394 764.354309,316.553406 760.060669,310.575104 
	C761.533630,307.313660 763.757385,308.968140 765.851501,309.720154 
	C771.266846,311.664795 774.776367,310.581512 777.090881,306.192535 
	C775.033447,304.462463 772.970154,306.246399 770.949036,306.269958 
	C762.518555,306.368225 757.946472,302.028717 757.880127,293.554688 
	C757.864502,291.555542 757.872375,289.556244 757.867004,287.080536 
z"/>
<path fill="#000000" opacity="1.000000" stroke="none" 
	d="
M661.049561,279.504364 
	C665.164429,278.080811 668.982605,279.009888 672.759277,279.023132 
	C674.359558,277.042572 673.423889,274.792786 673.705322,272.736450 
	C673.895874,271.343719 674.088989,270.066071 675.867981,269.955383 
	C677.892700,269.829407 678.539490,271.191132 678.540894,272.787384 
	C678.549377,282.563477 678.466064,292.339661 678.415405,302.115814 
	C678.407593,303.628784 677.728699,304.716980 676.239624,305.038025 
	C671.862610,305.981750 667.459290,306.944092 662.965393,305.900055 
	C656.954956,304.503754 654.719666,301.630005 654.663391,295.402954 
	C654.646912,293.578125 654.818726,291.736786 654.632080,289.931152 
	C654.120056,284.978943 656.139038,281.604401 661.049561,279.504364 
M673.682434,293.434387 
	C673.681824,292.101837 673.538696,290.751099 673.706238,289.440033 
	C674.306885,284.740967 671.938416,283.244781 667.627563,283.238434 
	C661.838440,283.229889 659.696838,284.708740 659.428589,289.496643 
	C659.344849,290.991089 659.396851,292.494324 659.416504,293.993195 
	C659.497620,300.179291 661.208496,301.787750 667.658203,301.763824 
	C673.420959,301.742401 673.627197,301.488892 673.682434,293.434387 
z"/>
<path fill="#000000" opacity="1.000000" stroke="none" 
	d="
M650.197876,294.988586 
	C650.191895,305.459076 649.581177,306.091644 639.552429,306.267426 
	C637.062866,306.311066 634.575195,306.409363 632.180969,305.382416 
	C628.307434,303.720917 625.782898,301.001556 625.938721,296.666412 
	C626.088867,292.489288 628.856628,290.201813 632.594421,288.827209 
	C636.411133,287.423584 640.390808,288.162689 645.067261,288.041779 
	C643.079224,282.878265 639.254761,283.156799 635.554321,283.414642 
	C634.438416,283.492401 633.323242,284.040222 632.274963,284.519684 
	C630.743958,285.219879 629.271179,285.428314 628.388428,283.746002 
	C627.309204,281.689178 629.203674,281.228058 630.447021,280.547363 
	C641.453918,274.521179 650.295532,280.776123 650.197876,294.988586 
M635.362122,292.578796 
	C632.224609,293.582214 630.209045,295.695862 631.614624,298.904297 
	C633.307251,302.767914 637.203857,302.373871 640.686462,302.201294 
	C644.118652,302.031128 645.079224,299.985870 644.795410,296.817474 
	C644.242126,290.640656 639.618164,292.727081 635.362122,292.578796 
z"/>
<path fill="#000000" opacity="1.000000" stroke="none" 
	d="
M683.927734,300.611206 
	C682.283875,295.849091 682.581665,291.302216 683.247742,286.899994 
	C684.231384,280.398834 691.723022,277.011353 699.643860,279.090088 
	C705.468445,280.618713 708.761353,286.546448 707.197449,292.378326 
	C706.682007,294.300354 705.390686,294.583221 703.843811,294.641693 
	C699.850830,294.792633 695.854858,294.866791 691.862183,295.023895 
	C690.550781,295.075470 689.012817,295.016388 688.567688,296.652740 
	C688.108765,298.339630 689.089478,299.598419 690.415100,300.417114 
	C693.716187,302.455811 697.133423,302.166504 700.361816,300.312042 
	C702.255005,299.224548 703.903076,298.446045 705.637329,300.384491 
	C702.347473,308.113983 690.806458,308.403107 683.927734,300.611206 
M691.149841,290.691742 
	C693.629150,290.701569 696.108643,290.733826 698.587708,290.715790 
	C702.042603,290.690643 702.527222,288.473480 701.433044,286.021698 
	C700.027649,282.872681 696.871216,283.287445 694.064880,283.293701 
	C691.532715,283.299316 689.454590,284.205780 688.606995,286.721954 
	C688.054504,288.362122 688.078613,290.070709 691.149841,290.691742 
z"/>
<path fill="#000000" opacity="1.000000" stroke="none" 
	d="
M601.187073,284.916016 
	C607.015259,276.802673 618.561829,276.419647 622.961792,283.883209 
	C621.573242,286.106445 619.800659,285.835541 617.915710,284.601929 
	C615.681702,283.139923 613.208130,283.056763 610.705994,283.383453 
	C607.643555,283.783264 605.934448,285.490204 605.972839,288.716614 
	C605.992615,290.377289 605.871460,292.042694 605.954834,293.698883 
	C606.083679,296.260223 605.316162,299.178375 608.468933,300.670898 
	C611.749146,302.223785 615.011536,302.087585 617.921875,300.012512 
	C619.836609,298.647308 621.438599,297.440094 623.483643,299.562775 
	C621.850220,304.212097 617.318054,306.741272 611.708557,306.169189 
	C605.279297,305.513458 601.092773,302.280914 600.804688,297.234650 
	C600.578735,293.275696 600.933105,289.283600 601.187073,284.916016 
z"/>
</svg>